<?xml version="1.0" standalone="no"?>
<!DOCTYPE svg PUBLIC "-//W3C//DTD SVG 20010904//EN"
 "http://www.w3.org/TR/2001/REC-SVG-20010904/DTD/svg10.dtd">
<svg version="1.0" xmlns="http://www.w3.org/2000/svg"
 width="500.000000pt" height="500.000000pt" viewBox="0 0 500.000000 500.000000"
 preserveAspectRatio="xMidYMid meet">

<g transform="translate(0.000000,500.000000) scale(0.100000,-0.100000)"
fill="#000000" stroke="none">
<path d="M2434 4408 c-52 -25 -56 -100 -7 -119 33 -12 77 1 81 25 3 15 -1 17
-28 11 -22 -5 -35 -3 -41 6 -12 20 9 49 36 49 29 0 43 19 24 31 -18 11 -39 10
-65 -3z"/>
<path d="M2554 4412 c-6 -4 -14 -25 -18 -47 -4 -22 -9 -48 -12 -57 -4 -14 1
-18 19 -18 22 0 25 5 31 57 7 57 0 78 -20 65z"/>
<path d="M2619 4413 c-10 -2 -19 -19 -23 -41 -11 -66 -8 -82 14 -82 11 0 20 7
20 15 0 9 9 15 23 15 44 0 74 59 45 88 -12 12 -47 14 -79 5z m51 -42 c0 -14
-18 -23 -30 -16 -6 4 -8 11 -5 16 8 12 35 12 35 0z"/>
<path d="M2731 4355 c-22 -30 -41 -57 -41 -60 0 -3 23 -3 50 1 34 5 50 3 50
-5 0 -6 9 -11 20 -11 24 0 23 -5 9 62 -10 48 -22 67 -40 68 -4 0 -25 -25 -48
-55z m45 -22 c-10 -10 -19 5 -10 18 6 11 8 11 12 0 2 -7 1 -15 -2 -18z"/>
<path d="M2280 4381 c0 -29 -17 -35 -32 -11 -20 32 -46 25 -52 -12 -14 -93
-14 -99 8 -96 12 2 22 13 26 26 l5 24 19 -21 c30 -33 56 -28 56 13 0 18 3 48
6 65 6 27 4 31 -15 31 -14 0 -21 -6 -21 -19z"/>
<path d="M2345 4363 c-3 -21 -8 -48 -11 -61 -4 -20 -1 -23 18 -20 20 3 24 10
28 61 5 49 3 57 -12 57 -12 0 -19 -11 -23 -37z"/>
<path d="M2875 4388 c-41 -115 -41 -118 28 -118 26 0 37 4 37 15 0 9 -9 15
-25 15 -29 0 -29 -3 -11 48 13 36 13 41 -1 46 -21 8 -23 8 -28 -6z"/>
<path d="M2138 4333 c-2 -36 -7 -49 -20 -51 -15 -3 -18 4 -18 42 0 49 0 49
-24 40 -12 -4 -16 -20 -16 -55 0 -43 3 -51 25 -61 52 -23 95 21 95 98 0 27 -4
34 -19 34 -17 0 -20 -8 -23 -47z"/>
<path d="M1986 4320 l-16 -41 -24 27 c-36 43 -54 28 -48 -43 2 -32 6 -59 7
-61 1 -1 10 0 19 4 13 5 16 13 11 33 l-6 25 21 -19 c21 -19 22 -19 41 5 l19
25 0 -23 c0 -14 5 -22 13 -20 7 3 13 28 15 66 3 56 1 62 -16 62 -14 0 -25 -13
-36 -40z"/>
<path d="M3017 4308 c-23 -40 -26 -53 -15 -59 8 -6 19 -2 31 12 13 16 17 18
17 6 0 -23 16 -30 40 -17 17 9 20 8 17 -12 -4 -39 22 -26 53 27 25 43 27 51
13 58 -10 6 -24 2 -44 -12 -39 -29 -49 -26 -49 14 0 53 -29 46 -63 -17z"/>
<path d="M3182 4255 c-34 -49 -39 -65 -19 -65 6 0 25 -7 41 -15 40 -21 58 -3
25 25 l-24 20 26 -6 c34 -7 47 11 18 26 -28 15 -18 23 14 11 19 -7 28 -6 36 3
9 10 2 17 -32 30 -23 9 -45 16 -48 16 -3 0 -20 -20 -37 -45z"/>
<path d="M1728 4242 c-17 -3 -26 -27 -44 -112 -7 -34 -7 -34 -17 -12 -9 20
-16 23 -44 17 -39 -7 -42 -1 -8 17 17 9 22 17 16 27 -7 11 -14 10 -39 -5 -54
-31 -50 -84 5 -84 20 0 32 -4 28 -10 -3 -5 -15 -10 -27 -10 -14 0 -18 -5 -14
-16 3 -9 6 -18 6 -20 0 -12 23 -1 52 25 18 15 43 31 56 35 12 4 22 13 22 21 0
17 26 26 55 19 37 -9 38 12 3 64 -22 32 -39 47 -50 44z m17 -62 c3 -5 1 -10
-4 -10 -6 0 -11 5 -11 10 0 6 2 10 4 10 3 0 8 -4 11 -10z"/>
<path d="M3295 4205 c-39 -47 -38 -71 1 -61 19 5 24 2 24 -14 0 -11 2 -20 4
-20 2 0 11 -3 20 -6 11 -4 16 0 16 13 0 10 10 23 23 28 13 6 23 21 25 36 2 21
-4 31 -33 48 -20 11 -38 21 -40 21 -2 0 -20 -20 -40 -45z m75 -13 c0 -14 -11
-21 -26 -15 -8 3 -11 9 -8 14 7 11 34 12 34 1z"/>
<path d="M2270 4190 c-327 -56 -603 -196 -843 -429 -265 -256 -426 -570 -482
-941 -19 -122 -19 -368 0 -490 38 -247 128 -480 266 -685 66 -99 98 -136 219
-256 495 -487 1245 -588 1858 -250 406 224 698 625 804 1107 30 136 32 503 5
634 -75 350 -211 611 -446 853 -130 134 -313 265 -466 333 -33 14 -74 32 -90
39 -60 27 -213 67 -325 86 -147 24 -355 24 -500 -1z m184 -67 c-30 -69 -62
-182 -75 -261 -6 -42 -13 -78 -15 -80 -5 -7 -70 31 -111 65 -24 19 -47 32 -53
28 -5 -3 -14 -24 -20 -46 -8 -28 -18 -43 -37 -50 -14 -5 -28 -7 -32 -4 -11 12
83 177 139 244 66 78 151 141 192 141 l28 0 -16 -37z m114 24 c29 -34 92 -264
107 -387 l7 -55 -99 3 c-125 3 -132 5 -172 42 l-34 30 22 107 c24 114 55 213
79 251 16 25 72 31 90 9z m87 -3 c74 -35 164 -134 236 -259 42 -72 104 -213
97 -220 -3 -3 -40 1 -84 9 -43 8 -107 18 -142 21 -53 6 -63 10 -67 28 -2 12
-11 63 -20 112 -20 114 -52 229 -76 277 -11 21 -19 40 -19 43 0 10 43 5 75
-11z m-373 -71 c-60 -61 -89 -101 -132 -182 -73 -139 -85 -151 -152 -151 -36
0 -63 -6 -83 -20 -16 -11 -45 -20 -64 -20 -19 0 -57 -13 -87 -31 -30 -17 -54
-27 -54 -22 0 9 102 152 140 197 93 109 286 244 410 286 104 36 107 28 22 -57z
m483 66 c153 -43 339 -176 465 -334 82 -103 188 -270 177 -281 -2 -2 -33 9
-68 24 -79 36 -196 76 -272 93 -42 10 -59 19 -63 34 -23 74 -105 233 -161 312
-25 35 -70 85 -101 113 -60 53 -56 61 23 39z m-635 -51 c-150 -90 -291 -222
-375 -348 -61 -92 -75 -107 -99 -111 -28 -6 -43 -35 -30 -57 20 -31 -6 -61
-101 -118 -51 -29 -120 -74 -154 -99 -92 -68 -219 -200 -276 -287 -27 -42 -55
-84 -62 -95 -7 -11 -6 3 4 37 142 501 517 904 993 1066 114 39 152 44 100 12z
m875 -7 c288 -95 583 -312 765 -566 104 -146 218 -387 246 -520 4 -23 -4 -15
-34 35 -108 174 -299 347 -488 443 -46 23 -57 35 -94 104 -112 207 -278 390
-450 494 -78 47 -65 49 55 10z m-362 -391 c46 0 47 -1 47 -30 0 -16 -4 -30 -8
-30 -11 0 -119 37 -132 45 -18 11 1 27 24 21 11 -3 42 -6 69 -6z m245 -26
l112 -17 26 -86 c14 -47 30 -99 35 -115 8 -26 7 -28 -14 -21 -12 4 -47 9 -77
11 -30 3 -65 7 -76 9 -22 5 -41 40 -46 85 -2 20 -12 28 -45 38 -31 10 -44 21
-52 43 -7 19 -17 29 -30 29 -16 0 -21 6 -21 26 0 29 -20 29 188 -2z m292 -71
c148 -48 243 -95 257 -125 l11 -25 -43 10 c-51 12 -91 4 -97 -20 -3 -10 -17
-24 -31 -32 -23 -12 -33 -12 -67 -1 -31 10 -46 11 -66 2 -36 -17 -60 0 -72 50
-9 37 -29 107 -49 171 -7 22 5 20 157 -30z m-1524 -70 c-10 -10 -19 5 -10 18
6 11 8 11 12 0 2 -7 1 -15 -2 -18z m1 -90 c-6 -92 -15 -119 -53 -154 -27 -24
-66 -49 -78 -49 -9 0 36 128 75 217 16 34 40 61 57 63 2 0 1 -35 -1 -77z m-73
10 c-9 -21 -32 -83 -52 -138 -20 -55 -48 -118 -63 -140 -21 -31 -25 -45 -17
-59 15 -26 3 -43 -39 -56 -54 -17 -197 -95 -270 -146 -33 -24 -82 -67 -108
-96 l-47 -53 6 54 c20 160 199 401 414 554 65 47 177 116 190 117 1 0 -5 -17
-14 -37z m2074 -90 c81 -62 100 -83 53 -59 -17 9 -51 19 -76 23 -39 5 -56 15
-105 64 -32 31 -64 67 -70 80 -11 20 -5 18 56 -15 38 -21 102 -63 142 -93z
m173 -151 c116 -120 211 -284 224 -387 l7 -60 -40 46 c-22 25 -67 65 -99 89
-32 24 -66 52 -75 63 -20 21 -24 67 -8 83 17 17 -8 61 -41 74 -18 8 -30 22
-34 41 -6 27 -56 79 -76 79 -6 0 -8 4 -5 9 3 4 29 6 58 4 45 -4 59 -11 89 -41z
m-2371 -157 c0 -3 -9 -23 -20 -45 -11 -22 -20 -46 -20 -54 0 -19 -22 -26 -80
-26 -53 0 -80 -18 -80 -51 0 -25 23 -71 44 -88 33 -28 19 -48 -36 -55 -60 -8
-77 -13 -200 -55 l-88 -29 0 32 c0 89 148 225 350 323 105 51 130 60 130 48z
m2450 -160 c57 -42 123 -112 144 -153 14 -27 23 -92 12 -92 -2 0 -24 9 -49 20
-51 23 -230 70 -264 70 -27 0 -30 24 -9 67 8 15 18 42 23 58 7 24 14 31 41 33
18 2 36 10 39 18 7 19 9 19 63 -21z m-1353 -6 c7 -7 9 -25 6 -40 -5 -28 -4
-28 31 -24 20 3 36 1 36 -4 0 -5 9 -11 20 -14 16 -4 20 -14 20 -43 0 -46 -43
-108 -70 -101 -10 2 -24 1 -31 -3 -7 -5 -28 -1 -48 9 -31 15 -40 16 -61 5 -35
-19 -79 -18 -87 2 -4 12 -14 14 -38 10 -48 -9 -62 12 -45 67 17 53 41 77 78
77 50 0 92 12 92 26 0 17 17 18 24 2 3 -9 12 -4 28 14 27 31 30 32 45 17z
m-1247 -164 c0 -4 -7 -19 -16 -36 -14 -28 -14 -33 10 -86 28 -60 34 -134 13
-151 -20 -17 -242 38 -316 77 -17 9 -21 21 -21 57 0 45 0 45 53 68 97 42 277
88 277 71z m2548 -21 c58 -14 130 -37 159 -49 53 -24 53 -24 53 -69 0 -43 -2
-47 -37 -65 -62 -31 -306 -91 -370 -91 l-28 0 3 86 c3 83 5 88 43 136 21 27
39 56 39 64 0 19 16 18 138 -12z m-233 -211 c-5 -58 -10 -73 -23 -74 -10 0
-50 -4 -89 -8 -40 -4 -73 -7 -73 -6 0 0 42 43 93 97 62 65 93 91 96 81 1 -9 0
-49 -4 -90z m-2563 -4 c25 -10 88 -28 139 -40 52 -13 87 -25 79 -27 -8 -3 -26
-9 -40 -14 l-25 -10 28 -24 c15 -13 52 -31 82 -39 71 -21 106 -65 121 -155 6
-36 10 -67 8 -69 -2 -2 -64 26 -137 62 -202 101 -337 227 -337 314 0 30 3 34
18 28 9 -4 38 -16 64 -26z m3008 -1 c0 -63 -80 -160 -194 -235 -69 -46 -274
-149 -281 -141 -2 2 3 32 10 68 8 36 17 102 21 147 l7 83 36 5 c155 24 281 55
346 85 54 25 55 25 55 -12z m-2320 -64 c0 -24 -4 -34 -12 -32 -24 8 -22 68 2
68 5 0 10 -16 10 -36z m1870 -37 c0 -13 -4 -48 -9 -78 -5 -30 -14 -87 -21
-127 -10 -63 -15 -74 -38 -86 -57 -28 -406 -116 -417 -104 -3 3 3 56 23 202
l7 50 74 30 c47 18 89 44 113 68 36 36 42 38 130 48 51 6 94 13 97 15 2 3 13
5 23 5 12 0 18 -7 18 -23z m-2460 -144 c52 -36 214 -118 266 -137 35 -12 37
-15 59 -102 23 -87 74 -235 95 -275 29 -54 -67 -11 -208 93 -185 137 -358 379
-378 528 l-7 53 64 -65 c35 -35 84 -78 109 -95z m2894 100 c-7 -61 -22 -98
-82 -198 -37 -63 -143 -196 -183 -230 -102 -87 -159 -129 -234 -175 -47 -29
-89 -50 -91 -47 -3 3 10 46 30 95 19 49 47 131 61 183 14 52 28 101 31 111 3
9 17 19 31 23 37 9 192 87 261 132 31 20 84 64 117 99 33 34 61 63 63 63 2 1
0 -25 -4 -56z m-2279 -53 c17 -19 18 -24 6 -53 -8 -18 -26 -68 -42 -112 -16
-45 -34 -81 -43 -83 -8 -2 -34 2 -57 8 -39 11 -42 13 -26 25 9 7 17 22 17 33
0 14 14 31 40 48 60 40 50 64 -24 64 -52 0 -83 -31 -91 -90 -7 -53 -15 -58
-55 -36 -17 10 -28 29 -37 67 -19 81 -18 82 27 59 21 -11 45 -20 53 -20 12 0
62 60 101 123 24 39 31 28 11 -19 -18 -44 -10 -57 31 -52 27 3 30 8 44 68 15
65 15 65 21 28 3 -21 14 -47 24 -58z m1370 -97 c-17 -142 -28 -204 -37 -209
-5 -3 -71 -12 -146 -20 -75 -7 -154 -16 -175 -19 l-38 -5 3 81 3 82 170 57
c94 32 181 62 195 68 14 6 26 11 28 11 2 1 1 -20 -3 -46z m-2007 -163 c84
-103 201 -207 322 -285 100 -64 103 -68 53 -60 -37 6 -43 4 -58 -18 -20 -31
-6 -77 25 -77 26 0 25 -14 -2 -50 -18 -24 -19 -32 -8 -45 16 -20 44 -12 92 26
20 16 44 29 53 29 35 0 76 -37 132 -119 91 -134 243 -278 376 -354 26 -16 47
-30 47 -32 0 -8 -169 49 -253 85 -333 144 -615 417 -782 760 -39 81 -105 262
-105 288 0 10 16 -10 36 -43 20 -33 52 -80 72 -105z m2857 63 c-105 -332 -337
-640 -635 -840 -105 -71 -280 -152 -413 -191 -38 -12 -67 -19 -65 -17 1 1 44
30 94 64 50 33 115 82 144 108 78 70 200 227 265 342 55 97 58 101 129 140
165 90 350 254 440 389 25 38 48 76 52 86 4 9 9 15 12 12 2 -3 -8 -45 -23 -93z
m-1259 -39 c-3 -26 -6 -62 -6 -80 l0 -34 -112 0 -113 1 65 60 c61 57 128 98
159 99 11 0 12 -10 7 -46z m-1199 12 c21 -8 64 -22 96 -31 31 -8 57 -20 57
-25 0 -16 -51 -50 -92 -61 -63 -16 -81 -10 -94 36 -30 106 -30 105 33 81z
m2033 10 c0 -34 -89 -293 -126 -368 -28 -55 -50 -67 -239 -129 -173 -57 -178
-59 -182 -55 -2 2 12 58 32 125 19 67 42 161 51 210 9 48 19 94 24 100 4 7 56
23 116 36 117 25 233 56 274 73 26 11 50 15 50 8z m-460 -117 c0 -21 -42 -216
-62 -284 -37 -131 -40 -140 -49 -150 -14 -14 -110 -32 -213 -41 l-89 -7 6 29
c7 29 37 358 37 401 0 20 7 22 88 28 48 4 125 13 172 20 111 17 110 17 110 4z
m-1540 -98 c12 -45 13 -78 1 -65 -4 5 -18 38 -29 73 -21 62 -21 63 -2 46 11
-10 24 -34 30 -54z m1155 -13 c-13 -169 -37 -363 -45 -372 -5 -5 -74 -8 -155
-8 -81 0 -150 3 -155 8 -11 12 -30 196 -23 223 3 12 9 21 13 21 13 0 60 75 60
96 0 10 5 36 11 57 11 39 39 52 39 16 0 -28 34 -21 38 8 3 23 20 27 166 31
l58 2 -7 -82z m685 -213 c0 -27 -123 -213 -203 -306 -137 -160 -331 -287 -481
-315 l-39 -7 70 69 c38 38 84 91 103 118 37 55 122 223 139 277 10 31 17 38
49 44 51 9 269 83 312 106 37 19 50 23 50 14z m-1070 -57 c0 -13 3 -40 7 -61
6 -38 5 -39 -23 -35 -23 2 -30 8 -32 32 -4 35 16 86 34 86 8 0 14 -10 14 -22z
m650 -88 c0 -19 -95 -213 -133 -273 -73 -114 -169 -199 -240 -212 l-37 -7 19
45 c27 62 57 175 76 282 25 143 21 135 58 136 17 0 79 9 137 19 58 9 108 18
113 19 4 0 7 -4 7 -9z m-1116 -21 c9 -13 23 -46 32 -74 34 -100 81 -132 180
-122 l53 5 38 -61 c20 -34 70 -95 110 -134 77 -78 76 -85 -16 -57 -111 33
-253 124 -362 233 -68 68 -179 205 -179 220 0 3 29 7 64 9 57 3 66 1 80 -19z
m481 -31 c2 -13 12 -66 21 -118 19 -113 35 -177 63 -248 27 -69 27 -73 -11
-65 -68 13 -179 115 -248 229 -23 39 -31 59 -22 62 6 2 12 17 12 33 0 17 5 39
10 50 10 18 62 51 89 55 7 2 18 7 24 13 20 20 56 13 62 -11z m320 -38 c-15
-123 -78 -353 -107 -387 -18 -22 -74 -16 -90 10 -31 47 -86 255 -102 382 l-6
50 156 0 156 0 -7 -55z"/>
<path d="M3406 4138 c-30 -42 -13 -78 47 -103 20 -8 38 -19 42 -25 3 -5 17
-10 29 -10 24 0 54 -26 43 -36 -3 -3 17 -26 44 -50 38 -34 58 -44 84 -44 39 0
65 22 65 53 0 26 -5 33 -43 66 l-27 25 -47 -45 c-28 -27 -43 -36 -38 -24 51
130 48 138 -46 106 -77 -26 -79 -26 -79 -2 0 13 -8 21 -22 23 -30 4 -35 34 -8
48 17 9 25 8 39 -4 21 -20 41 -21 41 -3 0 46 -96 65 -124 25z m194 -118 c0 -5
-7 -10 -16 -10 -8 0 -12 5 -9 10 3 6 10 10 16 10 5 0 9 -4 9 -10z m115 -85 c0
-25 -31 -43 -46 -28 -10 10 -8 17 6 33 21 24 40 21 40 -5z"/>
<path d="M1489 4104 c-19 -16 -36 -29 -38 -31 -5 -3 28 -82 42 -100 10 -14 26
-7 66 27 18 16 21 24 13 32 -9 9 -17 7 -32 -7 -11 -10 -23 -15 -26 -12 -4 4 4
15 16 25 27 22 19 48 -10 32 -32 -17 -36 -10 -8 13 18 14 24 27 19 35 -6 10
-16 7 -42 -14z"/>
<path d="M1368 4003 l-27 -28 32 -52 c23 -37 36 -50 46 -44 8 6 11 16 6 31 -6
20 -5 22 18 16 29 -7 57 17 35 31 -7 4 -18 22 -23 38 -14 42 -52 45 -87 8z
m52 -28 c0 -8 -4 -15 -9 -15 -13 0 -22 16 -14 24 11 11 23 6 23 -9z"/>
<path d="M1305 3950 c-11 -4 -30 -19 -41 -32 l-21 -25 33 -44 c36 -48 59 -57
59 -22 0 11 7 32 14 46 15 28 8 72 -11 80 -7 2 -22 1 -33 -3z m25 -49 c0 -14
-18 -23 -30 -16 -6 4 -8 11 -5 16 8 12 35 12 35 0z"/>
<path d="M3752 3874 c-28 -19 -29 -67 -2 -94 29 -29 85 -27 106 5 19 29 12 57
-23 85 -31 24 -51 25 -81 4z m62 -30 c22 -8 20 -31 -3 -43 -13 -7 -24 -6 -37
3 -15 12 -16 16 -5 30 15 18 21 19 45 10z"/>
<path d="M1205 3860 c-4 -6 -4 -29 0 -52 l7 -41 -30 6 c-20 4 -34 1 -41 -7 -9
-11 -2 -25 33 -62 38 -42 46 -46 52 -31 3 10 2 23 -5 30 -17 17 -13 29 8 22
25 -8 35 9 21 35 -13 24 4 28 18 4 8 -14 10 -14 21 0 11 14 8 22 -25 58 -43
49 -50 53 -59 38z"/>
<path d="M3905 3733 c-66 -33 -77 -43 -65 -58 9 -11 17 -12 30 -5 27 14 34 12
20 -5 -15 -18 -5 -35 23 -35 20 -1 20 -2 5 -13 -11 -9 -14 -18 -8 -28 8 -12
19 -9 65 16 30 16 54 34 52 40 -2 5 -25 11 -50 13 -26 2 -47 5 -47 8 0 3 7 18
15 33 20 40 2 55 -40 34z"/>
<path d="M1086 3687 l-27 -46 42 -38 c23 -21 44 -39 48 -41 6 -2 51 77 51 91
0 16 -29 6 -35 -13 -3 -11 -11 -20 -16 -20 -12 0 -11 7 2 32 7 13 8 23 1 30
-7 7 -14 3 -21 -11 -7 -12 -17 -21 -23 -21 -7 0 -7 4 -1 13 16 20 22 43 13 57
-5 9 -16 -1 -34 -33z"/>
<path d="M3978 3571 c-40 -5 -45 -8 -35 -21 7 -8 21 -20 32 -26 12 -7 20 -22
20 -37 1 -44 14 -43 55 3 42 49 46 60 28 78 -12 12 -22 13 -100 3z m62 -35 c0
-11 -19 -15 -25 -6 -3 5 1 10 9 10 9 0 16 -2 16 -4z"/>
<path d="M965 3501 c-6 -20 49 -131 65 -131 11 0 21 30 15 41 -9 13 14 49 30
49 8 0 15 5 15 10 0 6 0 13 1 17 0 8 -77 33 -103 33 -9 0 -19 -9 -23 -19z m65
-36 c0 -12 -19 -12 -23 0 -4 9 -1 12 9 8 7 -3 14 -7 14 -8z"/>
<path d="M4093 3467 c-10 -13 -29 -29 -41 -36 -35 -19 -21 -36 31 -37 26 -1
59 -5 73 -8 22 -6 25 -4 20 9 -3 9 -6 19 -6 21 0 2 -11 4 -25 4 -26 0 -33 18
-14 37 12 12 4 33 -11 33 -5 0 -17 -11 -27 -23z"/>
<path d="M906 3375 c-40 -60 -6 -121 65 -116 19 1 53 66 44 81 -11 17 -25 11
-35 -16 -11 -29 -37 -29 -54 -1 -9 14 -7 21 8 32 11 8 16 21 13 30 -9 22 -22
19 -41 -10z"/>
<path d="M4104 3345 c-19 -19 -23 -31 -18 -52 13 -57 83 -82 119 -43 26 28 13
81 -24 103 -38 22 -47 22 -77 -8z m79 -39 c8 -20 -18 -39 -43 -31 -20 6 -26
25 -13 38 12 12 51 7 56 -7z"/>
<path d="M857 3261 c-3 -14 7 -27 40 -51 42 -29 73 -34 73 -11 0 9 -92 81
-103 81 -2 0 -7 -9 -10 -19z"/>
<path d="M4168 3213 c-30 -3 -38 -9 -38 -24 0 -12 7 -19 20 -19 22 0 26 -10 9
-27 -7 -7 -9 -19 -5 -28 5 -14 9 -15 21 -5 12 10 18 10 30 0 12 -10 21 -10 40
-2 27 13 31 32 14 81 -11 32 -10 32 -91 24z m70 -51 c2 -7 -3 -12 -12 -12 -9
0 -16 7 -16 16 0 17 22 14 28 -4z"/>
<path d="M920 3158 c-1 -34 -17 -40 -51 -19 -42 26 -49 26 -49 2 0 -18 74 -71
98 -71 12 0 35 77 27 90 -9 14 -25 12 -25 -2z"/>
<path d="M4219 3082 c-51 -3 -56 -5 -52 -22 4 -16 14 -20 52 -19 64 1 85 10
69 29 -9 11 -29 14 -69 12z"/>
<path d="M801 3058 c-26 -72 -25 -75 35 -102 31 -14 58 -26 59 -26 2 0 8 21
13 47 12 54 2 83 -28 83 -10 0 -22 5 -25 10 -11 18 -45 11 -54 -12z m35 -55
c-11 -11 -19 6 -11 24 8 17 8 17 12 0 3 -10 2 -21 -1 -24z m54 10 c-1 -18 -18
-35 -24 -24 -4 6 -4 16 -1 21 7 12 25 13 25 3z"/>
<path d="M4186 3014 c-3 -8 -3 -28 1 -45 12 -60 83 -62 83 -2 0 14 4 21 10 18
6 -3 10 -17 10 -31 0 -15 6 -24 15 -24 21 0 19 49 -4 79 -23 30 -55 25 -59 -9
-6 -39 -22 -49 -22 -13 0 33 -24 52 -34 27z"/>
<path d="M770 2932 c0 -13 13 -24 40 -35 36 -14 50 -34 34 -49 -3 -4 -21 0
-39 8 -45 18 -47 18 -43 -8 4 -27 70 -53 99 -38 22 12 34 50 25 78 -6 18 -81
62 -106 62 -5 0 -10 -8 -10 -18z"/>
<path d="M730 2921 c0 -11 5 -23 10 -26 6 -3 10 3 10 14 0 11 -4 23 -10 26 -5
3 -10 -3 -10 -14z"/>
<path d="M4290 2890 c0 -20 -4 -21 -40 -15 -35 6 -40 5 -40 -13 0 -16 9 -21
44 -26 32 -5 45 -12 49 -26 3 -11 10 -20 17 -20 7 0 10 19 8 57 -2 46 -7 59
-20 61 -13 2 -18 -3 -18 -18z"/>
<path d="M4210 2790 c0 -11 7 -23 15 -26 17 -7 21 -54 5 -54 -5 0 -10 -9 -10
-20 0 -23 10 -24 70 -6 68 20 65 44 -9 89 -32 20 -62 37 -65 37 -3 0 -6 -9 -6
-20z"/>
<path d="M762 2788 c-11 -14 -20 -84 -12 -91 3 -3 29 -12 58 -21 48 -14 53
-14 59 1 4 9 -1 19 -10 25 -10 5 -17 21 -17 37 0 46 -53 79 -78 49z m48 -54
c0 -16 -16 -19 -25 -4 -8 13 4 32 16 25 5 -4 9 -13 9 -21z"/>
<path d="M793 2588 c-45 -8 -53 -13 -53 -32 0 -30 113 -116 118 -90 2 9 -1 21
-7 27 -15 15 -13 48 4 71 29 38 25 40 -62 24z m17 -48 c0 -5 -2 -10 -4 -10 -3
0 -8 5 -11 10 -3 6 -1 10 4 10 6 0 11 -4 11 -10z"/>
<path d="M4230 2551 c0 -11 5 -23 10 -26 12 -8 13 -55 1 -55 -5 0 -11 -18 -13
-41 -3 -35 0 -42 22 -54 14 -8 21 -14 15 -15 -5 0 -17 -4 -25 -10 -12 -7 -11
-12 5 -30 l20 -22 -25 3 c-16 3 -26 -1 -28 -11 -2 -11 13 -21 45 -33 26 -9 54
-17 61 -17 21 0 13 32 -14 61 l-26 27 37 12 c47 16 43 41 -10 58 -72 23 -72
23 -35 37 19 8 45 14 58 14 16 1 22 7 22 25 0 17 -14 33 -55 60 -30 20 -57 36
-60 36 -3 0 -5 -9 -5 -19z m65 -61 c3 -5 1 -10 -4 -10 -6 0 -11 5 -11 10 0 6
2 10 4 10 3 0 8 -4 11 -10z"/>
<path d="M746 2443 c-12 -13 -5 -72 10 -87 24 -24 45 -19 57 14 15 39 28 38
25 -1 -4 -39 19 -51 28 -15 15 60 -55 117 -76 62 -12 -33 -24 -34 -18 -2 5 24
-13 42 -26 29z"/>
<path d="M753 2275 c2 -26 6 -48 8 -50 2 -1 30 -6 62 -10 l57 -7 0 51 c0 45
-2 51 -21 51 -18 0 -20 -4 -14 -30 4 -18 3 -30 -4 -30 -5 0 -11 12 -13 27 -4
35 -28 43 -28 9 0 -14 -4 -26 -10 -26 -5 0 -10 14 -10 30 0 21 -5 30 -16 30
-14 0 -16 -8 -11 -45z"/>
<path d="M4202 2213 c-5 -21 -13 -57 -19 -80 -5 -23 -7 -47 -3 -54 10 -16 0
-49 -15 -49 -13 0 -29 -29 -21 -37 2 -3 31 -7 64 -10 53 -5 61 -3 64 13 3 11
-10 37 -31 64 -19 25 -39 50 -43 57 -11 13 23 8 60 -10 29 -14 50 6 59 55 5
36 4 37 -45 62 -28 14 -54 26 -56 26 -3 0 -9 -17 -14 -37z m34 -50 c-11 -11
-19 6 -11 24 8 17 8 17 12 0 3 -10 2 -21 -1 -24z m46 -15 c-9 -9 -12 -7 -12
12 0 19 3 21 12 12 9 -9 9 -15 0 -24z m-57 -118 c3 -5 1 -10 -4 -10 -6 0 -11
5 -11 10 0 6 2 10 4 10 3 0 8 -4 11 -10z"/>
<path d="M775 2170 c-3 -10 -3 -35 1 -55 l6 -35 65 0 c55 0 64 2 59 16 -3 9
-6 18 -6 20 0 2 -7 4 -15 4 -17 0 -20 16 -5 25 12 7 14 45 2 45 -4 0 -13 -5
-19 -11 -8 -8 -13 -8 -17 0 -12 19 -64 13 -71 -9z m55 -36 c0 -17 -22 -14 -28
4 -2 7 3 12 12 12 9 0 16 -7 16 -16z"/>
<path d="M811 2042 c-5 -10 -6 -33 -2 -52 l7 -35 66 -3 c63 -3 66 -2 61 18 -3
11 -11 20 -18 20 -7 0 -22 16 -34 35 -23 39 -63 48 -80 17z m57 -40 c2 -7 -3
-12 -12 -12 -9 0 -16 7 -16 16 0 17 22 14 28 -4z"/>
<path d="M4116 1944 c-4 -9 -5 -18 -4 -18 2 -1 19 -14 40 -29 26 -19 35 -32
31 -46 -3 -10 0 -22 6 -26 13 -8 54 82 47 102 -4 11 -9 11 -25 2 -15 -10 -23
-9 -46 9 -33 26 -41 27 -49 6z"/>
<path d="M868 1923 c-45 -7 -36 -39 14 -55 l42 -14 -22 -19 c-12 -11 -22 -28
-22 -39 0 -17 5 -18 56 -12 67 8 75 12 67 32 -4 10 -14 14 -29 11 -20 -3 -22
-2 -13 15 11 21 4 38 -17 38 -8 0 -14 5 -14 10 0 6 9 10 21 10 12 0 19 5 17
13 -5 13 -53 18 -100 10z"/>
<path d="M4070 1833 c-28 -36 -23 -80 11 -106 33 -24 64 -16 84 23 20 38 19
52 -6 84 -27 34 -62 34 -89 -1z m58 -25 c17 -17 15 -45 -3 -52 -21 -8 -48 33
-33 51 13 16 21 16 36 1z"/>
<path d="M1004 1765 c3 -8 9 -22 12 -30 3 -8 1 -15 -4 -15 -6 0 -14 9 -17 20
-10 32 -36 25 -30 -7 l6 -28 -17 23 c-15 19 -44 31 -44 17 0 -15 42 -85 51
-85 15 0 109 32 109 37 0 18 -44 83 -56 83 -10 0 -14 -5 -10 -15z"/>
<path d="M1001 1553 c-57 -48 -109 -95 -114 -105 -9 -13 4 -35 69 -114 44 -54
85 -99 90 -101 5 -2 15 12 23 29 18 42 63 109 113 170 l39 47 -48 65 c-26 35
-52 71 -58 80 -9 14 -25 4 -114 -71z"/>
<path d="M3901 1568 l-30 -41 37 -46 c60 -73 88 -113 111 -160 l22 -43 26 23
c14 13 38 41 55 62 29 37 30 38 13 64 -35 52 -174 183 -195 183 -5 0 -22 -19
-39 -42z"/>
<path d="M3803 1444 l-43 -54 35 -63 c19 -35 46 -95 59 -133 13 -37 28 -70 33
-71 5 -2 35 23 67 56 l58 58 -22 44 c-30 58 -118 195 -133 207 -8 6 -25 -7
-54 -44z"/>
<path d="M1228 1433 c-26 -32 -85 -127 -107 -173 -35 -76 -33 -82 39 -138 l65
-51 23 67 c24 71 41 113 73 175 l19 39 -42 49 c-22 27 -44 49 -48 49 -4 0 -14
-8 -22 -17z"/>
<path d="M3679 1323 l-50 -48 15 -75 c9 -41 16 -105 16 -142 0 -41 4 -68 10
-68 15 0 88 38 136 71 41 28 42 29 33 68 -16 71 -80 224 -99 236 -5 3 -33 -15
-61 -42z"/>
<path d="M1362 1303 c-13 -25 -82 -240 -82 -256 0 -10 127 -87 143 -87 2 0 7
39 10 88 4 48 9 114 12 147 l6 60 -40 33 c-36 29 -41 31 -49 15z"/>
<path d="M1375 878 c-2 -7 -25 -71 -51 -143 -48 -137 -74 -215 -74 -227 0 -5
68 -8 150 -8 166 0 152 -6 174 68 7 21 5 22 -48 22 -60 0 -61 1 -45 49 11 30
13 31 70 31 63 0 62 -1 83 68 7 21 5 22 -49 22 -48 0 -56 3 -53 18 3 13 15 18
64 20 58 3 61 4 72 36 7 18 12 38 12 44 0 18 -299 17 -305 0z"/>
<path d="M1702 833 c-12 -32 -41 -114 -66 -183 -53 -146 -55 -155 -23 -146 12
3 54 6 94 6 l71 0 13 38 c19 60 23 62 122 62 95 0 146 18 162 58 34 87 56 157
53 175 -5 36 -56 46 -239 46 l-167 1 -20 -57z m218 -53 c0 -23 -21 -72 -35
-82 -5 -4 -18 -8 -27 -8 -18 0 -17 4 17 98 7 20 45 15 45 -8z"/>
<path d="M2477 873 c-3 -10 -32 -94 -65 -188 -33 -93 -58 -173 -56 -177 3 -4
70 -8 150 -8 l145 0 15 35 c21 52 19 55 -42 55 -47 0 -55 3 -50 16 3 9 9 27
12 40 6 22 11 24 69 24 60 0 63 1 69 28 4 15 9 35 12 45 5 15 -2 17 -51 17
-48 0 -56 3 -53 18 3 13 15 18 64 20 54 3 63 6 73 28 6 14 11 34 11 44 0 19
-8 20 -149 20 -133 0 -149 -2 -154 -17z"/>
<path d="M2823 878 c-20 -31 -131 -364 -124 -371 4 -4 41 -7 82 -5 l74 3 35
95 35 95 3 -98 3 -98 52 3 52 3 64 93 c35 51 65 91 67 89 2 -2 -10 -41 -26
-88 -17 -46 -30 -87 -30 -92 0 -4 37 -7 82 -5 l82 3 23 60 c76 204 111 310
107 317 -3 4 -56 8 -119 8 l-114 0 -53 -79 -53 -79 -3 79 -3 79 -114 0 c-80 0
-116 -4 -122 -12z"/>
<path d="M3497 833 c-19 -32 -61 -105 -94 -163 -33 -58 -67 -117 -76 -131 -10
-14 -14 -29 -10 -32 3 -4 46 -7 94 -7 l89 0 20 40 c17 33 26 40 49 40 28 0 29
-1 21 -34 -4 -19 -5 -37 -2 -40 3 -4 45 -6 94 -6 62 0 90 4 93 13 6 16 45 321
45 352 l0 25 -144 0 -145 0 -34 -57z m138 -90 c-11 -64 -16 -73 -36 -73 -18 0
-17 3 8 55 15 30 29 55 31 55 1 0 0 -17 -3 -37z"/>
<path d="M2131 689 c-20 -8 -44 -76 -30 -85 5 -3 61 -2 124 2 l114 7 12 34 c6
19 9 37 6 39 -7 8 -206 10 -226 3z"/>
</g>
</svg>
